<?xml version="1.0" encoding="UTF-8" standalone="no"?>
<svg
   id="Layer_1"
   data-name="Layer 1"
   viewBox="0 0 99.999999 99.999996"
   version="1.1"
   sodipodi:docname="logo-quarto-on-docker.svg"
   inkscape:version="1.2.2 (b0a8486541, 2022-12-01)"
   xml:space="preserve"
   width="100"
   height="100"
   xmlns:inkscape="http://www.inkscape.org/namespaces/inkscape"
   xmlns:sodipodi="http://sodipodi.sourceforge.net/DTD/sodipodi-0.dtd"
   xmlns="http://www.w3.org/2000/svg"
   xmlns:svg="http://www.w3.org/2000/svg"><sodipodi:namedview
     id="namedview9"
     pagecolor="#505050"
     bordercolor="#eeeeee"
     borderopacity="1"
     inkscape:showpageshadow="0"
     inkscape:pageopacity="0"
     inkscape:pagecheckerboard="0"
     inkscape:deskcolor="#505050"
     showgrid="false"
     inkscape:zoom="4.4731698"
     inkscape:cx="59.800994"
     inkscape:cy="19.896405"
     inkscape:window-width="1349"
     inkscape:window-height="1041"
     inkscape:window-x="281"
     inkscape:window-y="0"
     inkscape:window-maximized="1"
     inkscape:current-layer="Layer_1" /><defs
     id="defs4"><style
       id="style2">
      .cls-1 {
        fill: #1d63ed;
        stroke-width: 0px;
      }
    </style><clipPath
       clipPathUnits="userSpaceOnUse"
       id="clipPath1271"><path
         d="M 0,396 H 612 V 0 H 0 Z"
         id="path1269" /></clipPath></defs><g
     id="g1620"
     transform="translate(0.258452,7.3068913)"><path
       d="m 49.578345,27.620644 -5.154102,19.23536 c 10.577354,2.23305 21.211162,-3.75904 24.697298,-13.95994 l -19.552907,-5.23918 z m -2.595548,-0.69548 -19.200853,-5.14485 c -2.009856,10.44849 3.967898,20.8528 14.029469,24.29975 l 5.135142,-19.16461 z m 3.29321,-1.90134 19.585698,5.24798 C 72.1225,19.590904 65.904307,8.8206738 55.522253,5.4376638 Z m -2.597273,-0.69593 5.247972,-19.5857002 c -10.621068,-2.0561 -21.127278,4.157 -24.483801,14.4333202 z"
       id="path982-3"
       style="fill:#7fb8db;fill-opacity:1;stroke-width:1.78663" /><path
       class="cls-1"
       d="m 97.866384,34.777424 c -2.438881,-1.6417 -8.847851,-2.34285 -13.507245,-1.08789 -0.251255,-4.64098 -2.644094,-8.55187 -7.021978,-11.9642 l -1.620659,-1.08789 -1.080001,1.63118 c -2.123168,3.2229 -3.017687,7.51659 -2.700659,11.41959 0.249939,2.40468 1.086578,5.10797 2.700659,7.06934 -26.800787,5.35989 -42.460995,2.71907 -74.62792059,2.71907 -0.11181494,5.58944 0.78665098,16.34209 7.62446339,25.09522 0.7550797,0.96687 1.5838257,1.90217 2.4822912,2.80327 5.559176,5.56707 13.958451,9.64897 26.518557,9.66081 19.161135,0.0171 35.578198,-10.33959 45.56393,-35.38219 3.286044,0.0539 11.960252,0.58933 16.205274,-7.61394 0.103922,-0.13813 1.08,-2.17579 1.08,-2.17579 l -1.618028,-1.08789 z M 24.951205,29.665514 H 14.203816 v 10.74738 h 10.747389 z m -13.884785,0 H 0.3190313 v 10.74738 H 11.06642 Z M 24.951205,16.091174 H 14.203816 v 10.74739 h 10.747389 z"
       id="path6"
       sodipodi:nodetypes="ccccccccccccccccccccccccccccccc"
       style="fill:#004e81;fill-opacity:1" /></g></svg>
